<?xml version="1.0" encoding="utf-8"?>
<!-- Svg Vector Icons : http://www.sfont.cn -->
<!DOCTYPE svg PUBLIC "-//W3C//DTD SVG 1.1//EN" "http://www.w3.org/Graphics/SVG/1.1/DTD/svg11.dtd">
<svg height="512" width="512" version="1.1" xmlns="http://www.w3.org/2000/svg" xmlns:xlink="http://www.w3.org/1999/xlink" x="0px" y="0px" viewBox="0 0 1000 1000" enable-background="new 0 0 1000 1000" xml:space="preserve">
<metadata> Svg Vector Icons : http://www.sfont.cn </metadata>
<g><g transform="translate(0.000000,512.000000) scale(0.100000,-0.100000)"><path d="M7978.9,4998.5c-21.1-9.6-147.5-128.3-281.5-260.4l-245.1-241.3l201.1-204.9c180-181.9,201.1-210.7,201.1-271.9c0-136-84.3-224.1-212.6-224.1c-51.7,0-91.9,28.7-270,204.9l-208.7,204.9l-262.4-262.4L6638.3,3681l396.4-396.4c216.4-220.2,400.2-419.4,407.9-442.4c49.8-168.5-130.2-329.4-283.4-250.9c-23,11.5-216.4,195.3-430.9,406l-386.9,386.9l-262.4-262.4l-262.4-262.4l204.9-208.7c176.2-178.1,204.9-218.3,204.9-270c0-128.3-88.1-212.6-224.1-212.6c-61.3,0-90,21.1-271.9,201.1l-204.9,201.1l-262.4-264.3l-262.4-262.4l384.9-383c212.6-210.7,398.3-411.7,413.7-446.2c55.5-130.2-44.1-271.9-191.5-271.9c-76.6,0-90,11.5-486.4,406l-407.9,407.9l-262.4-262.4l-262.4-262.4l193.4-199.2c130.2-132.1,197.3-218.3,204.9-258.5c30.6-134.1-107.2-271.9-241.3-241.3c-40.2,7.7-126.4,74.7-258.5,204.9l-199.2,193.4l-262.4-262.4l-262.4-262.4L3771.4-1.7c394.5-396.4,406-409.8,406-486.4c0-147.5-141.7-247.1-271.9-191.5c-34.5,15.3-235.6,201.1-446.2,413.7l-383,384.9l-262.4-262.4l-264.3-262.4l201.1-204.9c180-181.9,201.1-210.7,201.1-271.9c0-136-84.3-224.1-212.6-224.1c-51.7,0-91.9,28.7-270,204.9l-208.7,204.9l-262.4-262.4l-262.4-262.4l396.4-396.4c216.4-220.2,400.3-419.4,407.9-442.4c49.8-168.5-130.2-329.4-283.4-250.9c-23,11.5-216.4,195.3-430.9,406l-386.9,386.8l-262.4-262.4l-262.4-262.4L1119-2252c176.2-178.1,204.9-218.3,204.9-270c0-128.3-88.1-212.6-224.1-212.6c-61.3,0-90,21.1-273.9,201.1l-203,201.1l-250.9-254.7C117.4-2843.7,83-2897.4,105.9-2996.9c19.2-74.7,1704.4-1760,1779.1-1779.1c28.7-5.8,74.7-5.8,105.3,0c72.8,19.2,7886.3,7832.7,7905.5,7907.4c5.8,28.7,5.8,74.7-1.9,105.3c-13.4,57.5-1647,1710.2-1737,1758.1C8095.7,5027.3,8032.5,5029.2,7978.9,4998.5z"/></g></g>
</svg>